<svg width="32" height="32" viewBox="0 0 32 32" fill="none" xmlns="http://www.w3.org/2000/svg">
  <!-- Favicon optimized version -->
  <defs>
    <linearGradient id="faviconGradient" x1="0%" y1="0%" x2="100%" y2="100%">
      <stop offset="0%" style="stop-color:#3B82F6;stop-opacity:1" />
      <stop offset="50%" style="stop-color:#8B5CF6;stop-opacity:1" />
      <stop offset="100%" style="stop-color:#EC4899;stop-opacity:1" />
    </linearGradient>
  </defs>
  
  <!-- Simplified AppSpark logo for favicon -->
  <g fill="url(#faviconGradient)">
    <!-- Top elements -->
    <rect x="5" y="6" width="2" height="5" rx="1"/>
    <rect x="25" y="6" width="2" height="5" rx="1"/>
    
    <!-- Main band -->
    <path d="M9 5 Q16 3 23 5 Q25 6 25 9 L25 12 Q25 13 24 13 L23 13 Q22 13 22 12 L22 9 Q22 8 21 8 L11 8 Q10 8 10 9 L10 12 Q10 13 9 13 L8 13 Q7 13 7 12 L7 9 Q7 6 9 5 Z"/>
    
    <!-- Side dots -->
    <circle cx="4" cy="9" r="1"/>
    <circle cx="28" cy="9" r="1"/>
    
    <!-- Main body -->
    <rect x="4" y="15" width="24" height="6" rx="3"/>
    
    <!-- Central A -->
    <path d="M16 9 L12 20 L14 20 L15 18 L17 18 L18 20 L20 20 L16 9 Z M15.2 15.5 L16.8 15.5 L16 13 L15.2 15.5 Z"/>
    
    <!-- Bottom elements -->
    <circle cx="7" cy="24" r="1"/>
    <circle cx="25" cy="24" r="1"/>
    
    <!-- Bottom dots -->
    <rect x="12" y="25" width="1" height="2" rx="0.5"/>
    <rect x="15" y="25" width="1" height="2" rx="0.5"/>
    <rect x="18" y="25" width="1" height="2" rx="0.5"/>
  </g>
</svg>