<?xml version="1.0" encoding="utf-8"?>
<!-- Generator: Adobe Illustrator 24.0.1, SVG Export Plug-In . SVG Version: 6.00 Build 0)  -->
<svg version="1.1" id="Layer_1" xmlns="http://www.w3.org/2000/svg" xmlns:xlink="http://www.w3.org/1999/xlink" x="0px" y="0px"
	 viewBox="0 0 1000 1000" style="enable-background:new 0 0 1000 1000;" xml:space="preserve">
<style type="text/css">
	.st0{fill:#0F0F0F;}
	.st1{fill:#E2ECFF;}
</style>
<g>
	<g>
		<path class="st0" d="M589.88,753.72c-0.47-8.99-0.96-18.15-1.45-27.58c5.16-1.88,9.67-3.54,14.19-5.18
			c11.72-4.25,20.42-12.33,27.15-22.46c8.47-12.74,7.12-25.25-0.16-38.6c-20.85-38.23-40.92-76.89-61.26-115.4
			c-17.12-32.43-34.16-64.91-51.32-97.33c-1.65-3.11-3.72-6.02-5.83-8.85c-5.04-6.78-9.97-7.85-15.11-1.19
			c-7.09,9.18-13.01,19.38-18.53,29.64c-27.65,51.4-54.99,102.97-82.46,154.47c-7.7,14.43-15.49,28.81-23.22,43.23
			c-6.86,12.79-5.15,24.61,3.95,35.69c9.02,10.99,19.76,19.56,33.28,24.39c2.27,0.81,4.45,1.84,8.09,3.35c0,5,0.25,10.24-0.06,15.45
			c-0.51,8.58-2.91,10.61-11.72,10.71c-39.43,0.44-76.79-36.46-78.24-75.7c-0.67-18.25,5.87-33.76,13.49-49.22
			c16.32-33.11,32.92-66.09,49.62-99.01c15.78-31.11,31.82-62.1,47.79-93.12c9.21-17.88,18.34-35.81,27.82-53.54
			c13.43-25.11,45.13-25.67,57.94-13.45c6.94,6.62,13.71,14.14,18.13,22.54c21.92,41.65,43.28,83.6,64.36,125.69
			c21.38,42.69,41.7,85.91,63.48,128.39c11.09,21.63,8.53,42.74-1.59,62.38c-14.63,28.38-38.63,44.87-71.61,46.08
			c-1.1,0.04-2.21,0.05-3.3-0.07C592.66,754.94,592.07,754.57,589.88,753.72z"/>
		<path class="st0" d="M608.88,678c-2.58-3.26-4.62-7.02-6.49-10.76c-8.09-16.14-27.79-55.39-35.04-69.81
			c-1.67-3.34-5.08-5.43-8.81-5.43c-14.64,0-102.12,0-113.37,0c-3.63,0-6.95,1.98-8.68,5.18c-7.85,14.56-30.27,56.07-41.52,76.03
			c-3.56,6.32-3,11.37,0.99,17.11c8.01,11.53,19.6,15.57,32.69,15.75c24.77,0.36,49.56,0.1,74.34,0.1c0,0.03,0,0.07,0,0.1
			c18.36,0,36.73,0.13,55.09-0.05c9.5-0.09,19.01-0.47,28.48-1.2c9.15-0.71,16.06-5.91,21.81-12.65
			C612.2,687.88,612.95,683.15,608.88,678z M470.82,643.38c-0.11,0-0.23,0-0.34,0c0,5.52,0.71,11.17-0.23,16.53
			c-0.71,4-2.77,8.4-5.61,11.25c-4.89,4.93-13.01,2.41-13.57-4.43c-1.11-13.59-1.42-27.29-1.04-40.92
			c0.17-6.31,6.16-10.08,12.17-9.59c5.55,0.46,8.38,4.04,8.59,11.26C470.94,632.77,470.82,638.08,470.82,643.38z M515.12,629.94
			c-0.18,11.02-0.44,22.03-0.71,33.04c-0.2,8.15-5.29,14.14-11.75,13.93c-6.65-0.22-11.26-6.04-11.37-14.38
			c-0.04-3.31,0.01-6.61,0.01-9.92c0-3.09,0-6.17,0-9.26c-0.04,0-0.07,0-0.11,0c0-7.05-0.19-14.11,0.06-21.15
			c0.22-6.15,5.29-10.61,11.79-10.91c5.71-0.26,10.72,3.59,11.7,9.44C515.25,623.73,515.17,626.86,515.12,629.94z M558.11,643.25
			c-0.09,0-0.18,0-0.27,0c0,5.73,0.32,11.48-0.08,17.18c-0.54,7.69-5.47,13.38-11.08,13.55c-6.29,0.19-12.43-5.76-12.61-13.55
			c-0.24-10.76,0.02-21.56,0.82-32.29c0.57-7.59,6.85-13.05,12.78-12.45c6.36,0.64,10.27,5.72,10.42,13.68
			C558.18,634,558.11,638.63,558.11,643.25z"/>
		<path class="st0" d="M384.5,411.03c0,0,0.23-8.45,0.21-12.16c-0.12-21.68,0.03-43.36-0.21-65.04
			c-0.17-15.88,7.64-26.91,20.7-34.57c3.77-2.21,7.92-5.14,12.77-3.01c1.29,0.57,3.15,2.59,4.4,3.82c6.76,6.64,14.4,9.54,24.4,9.28
			c38.25-0.96,76.52-1.02,114.78-1.16c6.83-0.03,12.56-1.57,17.33-6.6c5.92-6.24,9.66-6.98,16.78-2.61
			c14.3,8.78,24.08,19.75,23.02,38.55c-1.21,21.39-0.31,42.91-0.36,64.37c-0.01,2.38-0.21,4.75-0.39,8.58
			c-11.62,0-22.79,0.5-33.87-0.33c-2.94-0.22-6.34-4.06-8.2-7.06c-5.11-8.25-9.95-16.73-14.12-25.49
			c-8.9-18.72-22.28-32.6-42.37-38.47c-22.64-6.61-42.3,0.24-59.17,15.9c-11.41,10.58-18.36,24.21-25,37.99l-8.9,18.47L384.5,411.03
			z"/>
		<path class="st0" d="M590.9,432.7c5.13-0.51,8.1-1.03,11.08-1.07c39.59-0.57,79.19-0.9,118.78-1.68
			c15.31-0.3,28.71,4.22,40.69,13.46c30.2,23.28,30.08,72.74-0.09,96.17c-13.37,10.39-27.94,16.16-45.27,15.87
			c-18.11-0.31-36.25,1.16-54.38,1.31c-3.18,0.03-7.9-1.75-9.31-4.19c-7.2-12.41-13.6-25.29-20.13-38.08
			c-0.94-1.85-1.09-4.1-1.97-7.62c5.44-0.3,9.94-0.88,14.41-0.75c24.32,0.68,48.64,1.55,72.96,2.32c5.8,0.18,11.69-0.89,14.42-6.3
			c2.32-4.6,4.58-10.55,3.57-15.18c-1.4-6.46-7.42-10.21-14.41-10.96c-2.85-0.31-5.74-0.28-8.62-0.27
			c-28.98,0.07-57.97-0.01-86.94,0.38c-7.9,0.11-13.3-1.91-16.88-9.55C603.68,455.62,597.56,445.16,590.9,432.7z"/>
		<path class="st0" d="M414.62,432.46c0,0-15.79,29.55-22.98,43c-8.67,0-15.72-0.01-22.77,0c-24.99,0.05-49.97,0.1-74.96,0.22
			c-2.19,0.01-4.43,0.31-6.55,0.85c-8.28,2.11-15.08,9.45-14.34,15.28c1.01,8.01,10.1,16.55,18.29,16.69
			c7.73,0.14,15.48-0.34,23.21-0.37c19.64-0.06,40.75-0.02,61.16-0.02c-0.01,0.12-25.45,47.93-25.45,47.93s-51.88,0.68-73.97-3.54
			c-36.14-6.91-56.48-41.22-48.86-76.76c5.48-25.55,31.16-46.22,57.25-45.78c40.46,0.68,80.92,1.54,121.38,2.35
			C407.98,432.35,414.62,432.46,414.62,432.46z"/>
		<path class="st0" d="M362.7,409.17c-12.23,0-23.13,0-34.49,0c-0.22-1.21-0.73-2.67-0.73-4.13c-0.04-29.63-0.22-59.25,0.05-88.88
			c0.39-43.17,40.24-71.72,75.3-71.28c8.88,0.11,10.74,2,11.14,10.98c0.02,0.44-0.01,0.88,0.01,1.33
			c0.61,15.78,0.63,15.85-14.5,20.09c-17.6,4.93-36.56,26.42-36.63,48.89c-0.07,22.77-0.11,45.54-0.16,68.32
			C362.7,399.06,362.7,403.63,362.7,409.17z"/>
		<path class="st0" d="M675.57,326.73c-0.34-9.46-0.79-19.15-3.08-28.25c-7.44-29.54-36.2-51.48-68.1-52.88
			c-3.66-0.16-7.33-0.1-11.55-0.06c-2.6,0.03-4.66,2.21-4.52,4.8l1.05,20.81c0.1,2.07,1.59,3.82,3.62,4.25
			c5.73,1.22,10.44,1.83,14.43,3.85c21.11,10.7,33.51,27.62,34.33,51.82c0.37,10.82,0.05,21.66,0.04,32.5c0,14.97,0,29.94,0,45.31
			h35.55c0,0,0.05-6.39,0-9.21C676.82,375.34,676.45,351.02,675.57,326.73z"/>
		<path class="st0" d="M528.2,522.28c6.22,12.46,17.79,35.81,21.77,43.83c0.64,1.3-0.28,2.82-1.73,2.85
			c-2.81,0.05-6.75,0.12-8.51,0.13c-25.4,0.15-50.81,0.19-76.21,0.11c-1.83-0.01-5.22,0.01-7.71,0.02c-1.44,0.01-2.4-1.48-1.8-2.79
			c3.68-7.99,14.29-31.12,19.82-44.04c0.31-0.73,1.02-1.19,1.81-1.19h50.79C527.18,521.19,527.86,521.61,528.2,522.28z"/>
		<path class="st0" d="M705.33,368.11c0.22-16.28,11.54-27.85,26.9-27.5c15.73,0.36,28.38,13.17,27.42,28.77
			c-1.05,17.03-12.71,26.26-28.24,26.89C717.45,396.84,705.13,382.65,705.33,368.11z M744.72,368.12
			c-0.05-5.47-6.01-10.97-11.97-11.05c-5.98-0.08-12.99,5.93-12.86,11.03c0.12,5.07,7.75,12.32,12.99,12.33
			C738.21,380.45,744.77,373.63,744.72,368.12z"/>
		<path class="st0" d="M245.24,367.05c0.24-14.55,12.42-26.99,26.31-26.88c13.37,0.1,27.73,14.61,27.32,27.6
			c-0.46,14.52-13.7,27.7-27.77,27.63C257.66,395.33,245,381.45,245.24,367.05z M283.36,368.12c-0.04-5.69-5.55-10.8-11.46-10.61
			c-5.1,0.16-9.98,5.31-9.97,10.55c0.01,5.48,5.18,11.12,10.26,11.17C277.61,379.27,283.4,373.52,283.36,368.12z"/>
		<path class="st0" d="M754.83,614.82c-0.35,14.36-12.56,26.84-25.93,26.51c-12.55-0.31-24.95-14.5-24.7-28.27
			c0.24-12.94,12.48-24.81,25.42-24.66C743.08,588.55,755.16,601.21,754.83,614.82z M728.29,603.78c-5.01-0.08-9.6,4-9.84,8.75
			c-0.27,5.52,5.65,11.68,11.24,11.68c5.36,0,9.18-4.14,9.18-9.93C738.87,608.89,733.82,603.88,728.29,603.78z"/>
		<path class="st0" d="M277.1,589.39c12.41,0.15,23.68,12.01,23.63,24.86c-0.05,13.43-12.46,26.6-24.85,26.37
			c-12.72-0.24-25.22-13.82-24.94-27.11C251.21,600.98,263.94,589.23,277.1,589.39z M268.36,614.14
			c0.07,5.05,5.98,11.77,10.29,11.13c5.68-0.85,7.08-5.32,7.18-10.25c0.11-5.19-4.48-10.23-9.12-10.34
			C272.66,604.59,268.3,609.52,268.36,614.14z"/>
		<path class="st0" d="M743.58,717.05c-0.07,4.98-2.12,8.57-7.47,9.24c-5.03,0.63-11.06-3.09-11.15-8.05
			c-0.25-14.5,0.09-29.02,0.67-43.51c0.18-4.45,3.45-7.15,8.13-7c4.94,0.15,8.65,2.45,9.1,7.73
			C743.5,683.14,743.67,710.89,743.58,717.05z"/>
		<path class="st0" d="M279.33,285.79c-0.6,8.03-0.89,14.65-1.66,21.22c-0.54,4.6-2.24,8.78-7.95,8.89
			c-5.86,0.11-9.72-3.75-10.01-8.69c-0.75-12.7-0.54-25.48-0.24-38.21c0.13-5.55,4.16-8.26,9.42-8.07c5.64,0.2,9.88,3.07,10.35,9.1
			C279.68,275.73,279.33,281.49,279.33,285.79z"/>
		<path class="st0" d="M791.43,654.76c-5.09,0-10.18-0.09-15.26,0.03c-5.07,0.12-8.71-1.69-9.67-6.98
			c-0.78-4.32,3.39-10.08,8.3-10.35c11.46-0.62,22.98-0.99,34.44-0.62c6.44,0.21,9.89,4.58,9.51,9.72
			c-0.38,5.14-4.42,8.42-10.73,8.53c-2.87,0.05-5.75-0.22-8.62-0.28c-2.65-0.05-5.31-0.01-7.96-0.01
			C791.43,654.78,791.43,654.77,791.43,654.76z"/>
		<path class="st0" d="M190.93,339.89c-5.28-0.38-9.65-2.89-9.7-8.84c-0.05-6.18,4.58-8.35,9.83-8.46
			c10.14-0.23,18.09,0.01,28.24,0.16c1.51,0.02,4.61,0.24,5.85,0.75c4.64,1.9,7.26,3.72,7.26,9.48c0,3.41-4.87,6.71-8.52,7.67
			C218.94,341.95,196.41,340.29,190.93,339.89z"/>
		<path class="st0" d="M520.67,274.68l-0.68-2.35c-0.6-2.06-2.48-3.46-4.62-3.46h-26.43c-2.66,0-4.81,2.15-4.81,4.81v2.87
			c0,2.61,2.08,4.73,4.68,4.8c9.26,0.25,18.49,1.33,28.15-0.67C519.73,280.1,521.43,277.31,520.67,274.68z"/>
		<path class="st0" d="M542.41,285.47c-4.87-0.16-8.71-4.66-8.4-9.85c0.36-5.85,5.06-10.2,10.88-10.05
			c5.63,0.14,8.84,3.23,8.77,8.44C553.59,280.17,548.21,285.65,542.41,285.47z"/>
		<path class="st0" d="M496.03,497.31c-2.73-7.45-1.15-13.84,4.92-19.54c1.17-1.1,3.09-0.7,3.78,0.75
			c2.63,5.53,5.23,10.99,8.08,16.99c0.76,1.59-0.4,3.44-2.17,3.44h-12.35C497.28,498.95,496.38,498.28,496.03,497.31z"/>
		<path class="st0" d="M470.58,276.08c-0.04,4.81-4.19,9.12-8.72,9.05c-5.28-0.07-9.27-4.38-9.14-10.14
			c0.12-5.17,2.82-8.4,8.04-8.76C465.51,265.9,470.63,271.28,470.58,276.08z"/>
		<path class="st0" d="M343.7,575.85c-4.26,8.58-10.67,21.14-15.26,30.36c-4.21-5.97-3.93-24.51,0.29-27.73
			C333.17,575.12,343.7,575.85,343.7,575.85z"/>
		<path class="st0" d="M675.02,578.09h-8.36c-1.58,0-2.65,1.61-2.04,3.06c2.44,5.74,5.75,13.64,8.36,19.91
			c0.93,2.23,4.24,1.56,4.24-0.86V580.3C677.23,579.08,676.24,578.09,675.02,578.09z"/>
	</g>
</g>
</svg>
