<svg width="160" height="32" viewBox="0 0 160 32" fill="none" xmlns="http://www.w3.org/2000/svg">
  <path d="M16 0C7.163 0 0 7.163 0 16s7.163 16 16 16 16-7.163 16-16S24.837 0 16 0z" fill="#2563EB"/>
  <path d="M12 9.6v12.8L21.6 16 12 9.6z" fill="white"/>
  <path d="M40 8h4.8c2.651 0 4.8 2.149 4.8 4.8s-2.149 4.8-4.8 4.8H40V8zm4.8 7.2c1.326 0 2.4-1.074 2.4-2.4s-1.074-2.4-2.4-2.4H42.4v4.8h2.4z" fill="#1E293B"/>
  <path d="M52 8h4.8c2.651 0 4.8 2.149 4.8 4.8s-2.149 4.8-4.8 4.8H52V8zm4.8 7.2c1.326 0 2.4-1.074 2.4-2.4s-1.074-2.4-2.4-2.4H54.4v4.8h2.4z" fill="#1E293B"/>
  <path d="M64 8h2.4v7.2c0 1.326 1.074 2.4 2.4 2.4s2.4-1.074 2.4-2.4V8h2.4v7.2c0 2.651-2.149 4.8-4.8 4.8s-4.8-2.149-4.8-4.8V8z" fill="#1E293B"/>
  <path d="M76 8h7.2v2.4h-4.8v2.4h4v2.4h-4v2.4h4.8v2.4H76V8z" fill="#1E293B"/>
  <path d="M85.6 8h4.8c2.651 0 4.8 2.149 4.8 4.8s-2.149 4.8-4.8 4.8h-4.8V8zm4.8 7.2c1.326 0 2.4-1.074 2.4-2.4s-1.074-2.4-2.4-2.4H88v4.8h2.4z" fill="#1E293B"/>
  <path d="M97.6 8h2.4l4.8 7.2V8h2.4v12h-2.4l-4.8-7.2v7.2h-2.4V8z" fill="#1E293B"/>
  <path d="M109.6 8h2.4v12h-2.4V8z" fill="#1E293B"/>
  <path d="M114.4 8h2.4l4.8 7.2V8h2.4v12h-2.4l-4.8-7.2v7.2h-2.4V8z" fill="#1E293B"/>
  <path d="M126.4 8h7.2v2.4h-4.8v2.4h4v2.4h-4v2.4h4.8v2.4h-7.2V8z" fill="#1E293B"/>
  <text x="40" y="28" font-family="Arial" font-size="8" fill="#64748B">LITE</text>
</svg>